<?xml version="1.0" standalone="no"?>
<!DOCTYPE svg PUBLIC "-//W3C//DTD SVG 20010904//EN"
 "http://www.w3.org/TR/2001/REC-SVG-20010904/DTD/svg10.dtd">
<svg version="1.0" xmlns="http://www.w3.org/2000/svg"
 width="1200.000000pt" height="1200.000000pt" viewBox="0 0 1200.000000 1200.000000"
 preserveAspectRatio="xMidYMid meet">

<g transform="translate(0.000000,1200.000000) scale(0.100000,-0.100000)"
fill="#000000" stroke="none">
<path d="M4300 11286 c-148 -34 -257 -91 -375 -195 -50 -43 -216 -206 -370
-362 -234 -237 -287 -296 -322 -359 -168 -301 -142 -677 67 -952 28 -37 788
-801 1688 -1698 l1636 -1631 -1655 -1657 c-911 -911 -1672 -1680 -1693 -1709
-53 -74 -111 -205 -132 -298 -26 -113 -24 -302 5 -410 26 -99 78 -209 135
-289 53 -73 642 -660 706 -703 25 -17 78 -47 119 -67 243 -123 566 -110 806
30 73 43 269 235 2313 2273 1384 1379 2256 2256 2293 2304 70 93 122 196 150
303 31 114 31 326 0 439 -26 96 -66 183 -119 262 -45 67 -4497 4519 -4582
4583 -67 50 -174 103 -255 125 -79 22 -338 29 -415 11z"/>
</g>
</svg>
