<?xml version="1.0" standalone="no"?>
<!DOCTYPE svg PUBLIC "-//W3C//DTD SVG 20010904//EN"
 "http://www.w3.org/TR/2001/REC-SVG-20010904/DTD/svg10.dtd">
<svg version="1.0" xmlns="http://www.w3.org/2000/svg"
 width="1200.000000pt" height="1200.000000pt" viewBox="0 0 1200.000000 1200.000000"
 preserveAspectRatio="xMidYMid meet">

<g transform="translate(0.000000,1200.000000) scale(0.100000,-0.100000)"
fill="#000000" stroke="none">
<path d="M7380 11120 c-94 -15 -211 -57 -295 -106 -73 -43 -269 -235 -2313
-2273 -1384 -1379 -2256 -2256 -2293 -2304 -70 -93 -122 -196 -150 -303 -31
-114 -31 -326 0 -439 26 -96 66 -183 119 -262 45 -67 4497 -4519 4582 -4583
68 -51 174 -103 260 -127 50 -13 102 -18 225 -18 187 0 242 11 380 79 116 58
195 128 550 487 234 237 287 296 322 359 168 301 142 677 -67 952 -28 37 -788
801 -1688 1698 l-1636 1631 1655 1657 c911 911 1672 1680 1693 1709 53 74 111
205 132 298 26 113 24 302 -5 410 -26 99 -78 209 -135 289 -53 73 -642 660
-706 703 -76 51 -189 103 -269 124 -87 23 -275 33 -361 19z"/>
</g>
</svg>
