<?xml version="1.0" encoding="utf-8"?>
<!-- Generator: Adobe Illustrator 28.2.0, SVG Export Plug-In . SVG Version: 6.00 Build 0)  -->
<svg version="1.1" id="Слой_1" xmlns="http://www.w3.org/2000/svg" xmlns:xlink="http://www.w3.org/1999/xlink" x="0px" y="0px"
	 viewBox="0 0 24 24" style="enable-background:new 0 0 24 24;" xml:space="preserve">
<style type="text/css">
	.st0{fill-rule:evenodd;clip-rule:evenodd;fill:#A8D4E6;}
</style>
<path id="Shape" class="st0" d="M24,12c0,6.62-5.38,12-12,12C5.37,24,0,18.62,0,12C0,5.37,5.37,0,12,0C18.62,0,24,5.37,24,12z
	 M8.03,10.9c-1.2,0.52-2.44,1.06-3.57,1.68c-0.59,0.43,0.2,0.74,0.93,1.03c0.12,0.04,0.24,0.09,0.34,0.13
	c0.1,0.03,0.19,0.06,0.28,0.09c0.82,0.26,1.73,0.55,2.52,0.11c1.31-0.75,2.54-1.61,3.77-2.48c0.4-0.28,0.81-0.57,1.21-0.85
	c0.02-0.01,0.04-0.02,0.06-0.04c0.35-0.22,1.13-0.72,0.84-0.03c-0.68,0.74-1.41,1.4-2.14,2.06c-0.49,0.45-0.99,0.89-1.47,1.37
	c-0.42,0.34-0.86,1.03-0.39,1.51c1.09,0.76,2.19,1.5,3.29,2.24c0.36,0.24,0.72,0.48,1.08,0.72c0.6,0.49,1.55,0.1,1.68-0.66
	c0.06-0.35,0.12-0.7,0.18-1.04c0.33-1.93,0.66-3.85,0.95-5.78c0.04-0.3,0.08-0.6,0.13-0.91c0.11-0.73,0.22-1.46,0.25-2.2
	c-0.09-0.74-0.98-0.58-1.48-0.41c-2.55,0.97-5.08,2.01-7.59,3.08C8.61,10.64,8.32,10.77,8.03,10.9z"/>
</svg>
