<?xml version="1.0" encoding="utf-8"?>
<!-- Generator: Adobe Illustrator 28.2.0, SVG Export Plug-In . SVG Version: 6.00 Build 0)  -->
<svg version="1.1" id="Слой_1" xmlns="http://www.w3.org/2000/svg" xmlns:xlink="http://www.w3.org/1999/xlink" x="0px" y="0px"
	 viewBox="0 0 800 800" style="enable-background:new 0 0 800 800;" xml:space="preserve">
<style type="text/css">
	.st0{fill:#A8D4E6;}
</style>
<path class="st0" d="M400,0C179.1,0,0,179.1,0,400s179.1,400,400,400s400-179.1,400-400S620.9,0,400,0z M553.9,451.2
	c0,0,35.4,34.9,44.1,51.1c0.2,0.3,0.4,0.6,0.4,0.8c3.5,5.9,4.4,10.6,2.6,14.1c-2.9,5.7-12.9,8.5-16.4,8.9h-62.5
	c-4.4,0-13.4-1.1-24.4-8.8c-8.4-5.9-16.8-15.6-24.9-25.1c-12.1-14.1-22.6-26.2-33.2-26.2c-1.4,0-2.7,0.2-4,0.6
	c-8,2.6-18.2,14-18.2,44.4c0,9.5-7.5,15-12.8,15H376c-9.8,0-60.5-3.4-105.5-50.8c-55.1-58.1-104.7-174.7-105.1-175.8
	c-3.1-7.5,3.3-11.6,10.4-11.6H239c8.4,0,11.1,5.1,13.1,9.7c2.3,5.3,10.5,26.4,24.1,50c22,38.5,35.4,54.3,46.2,54.3
	c2,0,4.1-0.5,5.8-1.5c14.1-7.8,11.5-58,10.8-68.4c0-2,0-22.5-7.3-32.3c-5.2-7.1-14-9.8-19.3-10.8c2.2-3,5-5.4,8.3-7.1
	c9.7-4.8,27.1-5.5,44.4-5.5h9.6c18.8,0.2,23.5,1.5,30.4,3.1c13.8,3.3,14.1,12.2,12.8,42.5c-0.4,8.6-0.7,18.3-0.7,29.9
	c0,2.5-0.1,5.2-0.1,8c-0.4,15.4-0.9,33,10,40.2c1.5,0.9,3,1.4,4.8,1.4c3.8,0,15.2,0,46.1-53c9.6-17.1,17.8-34.8,24.8-53.1
	c0.6-1,2.5-4.4,4.6-5.7c1.6-0.8,3.3-1.3,5.2-1.3h74.2c8.1,0,13.6,1.3,14.7,4.4c1.9,5-0.3,20.1-34.2,65.9l-15.1,20
	C521.2,418.8,521.2,420.7,553.9,451.2L553.9,451.2z"/>
</svg>
