<?xml version="1.0" encoding="utf-8"?>
<!-- Generator: Adobe Illustrator 28.2.0, SVG Export Plug-In . SVG Version: 6.00 Build 0)  -->
<svg version="1.1" id="Слой_1" xmlns="http://www.w3.org/2000/svg" xmlns:xlink="http://www.w3.org/1999/xlink" x="0px" y="0px"
	 viewBox="0 0 24 24" style="enable-background:new 0 0 24 24;" xml:space="preserve">
<style type="text/css">
	.st0{fill-rule:evenodd;clip-rule:evenodd;fill:#FF9DB8;}
</style>
<g>
	<path class="st0" d="M12,0C5.37,0,0,5.37,0,12c0,6.62,5.37,12,12,12c6.62,0,12-5.38,12-12C24,5.37,18.62,0,12,0z M12.39,18.67
		c-1.2,0-2.37-0.3-3.41-0.87L5.2,18.79l1.01-3.69c-0.63-1.08-0.96-2.31-0.96-3.57c0.01-3.93,3.21-7.14,7.14-7.14
		c1.91,0.01,3.7,0.75,5.05,2.1c1.35,1.35,2.09,3.14,2.09,5.05C19.52,15.47,16.32,18.67,12.39,18.67z"/>
	<path class="st0" d="M12.39,5.6c-3.27,0-5.93,2.66-5.93,5.93c0,1.12,0.31,2.21,0.91,3.16l0.14,0.22l-0.6,2.19l2.24-0.59l0.22,0.13
		c0.91,0.54,1.95,0.83,3.02,0.83c3.27,0,5.93-2.66,5.93-5.93c0-1.59-0.61-3.08-1.73-4.2S13.98,5.6,12.39,5.6z M15.88,14.08
		c-0.15,0.42-0.86,0.8-1.2,0.85c-0.31,0.04-0.7,0.06-1.12-0.07c-0.26-0.08-0.6-0.19-1.02-0.38c-1.79-0.77-2.96-2.57-3.05-2.69
		c-0.09-0.12-0.73-0.97-0.73-1.84c0-0.88,0.47-1.31,0.63-1.49c0.16-0.18,0.36-0.22,0.47-0.22c0.12,0,0.24,0,0.35,0
		c0.11,0.01,0.25-0.04,0.4,0.31c0.15,0.35,0.5,1.23,0.55,1.32c0.04,0.09,0.07,0.19,0.01,0.31s-0.09,0.2-0.18,0.3
		c-0.09,0.11-0.18,0.23-0.26,0.31c-0.09,0.09-0.19,0.19-0.08,0.37c0.1,0.18,0.46,0.76,0.99,1.23c0.68,0.61,1.26,0.8,1.43,0.89
		c0.18,0.09,0.29,0.07,0.39-0.05c0.1-0.12,0.45-0.52,0.56-0.7c0.12-0.17,0.24-0.14,0.41-0.09c0.16,0.06,1.04,0.5,1.21,0.58
		c0.18,0.09,0.3,0.14,0.35,0.21C16.03,13.31,16.03,13.66,15.88,14.08z"/>
</g>
</svg>
